<svg xmlns="http://www.w3.org/2000/svg" version="1.1" xmlns:xlink="http://www.w3.org/1999/xlink" xmlns:svgjs="http://svgjs.com/svgjs" width="512" height="512" x="0" y="0" viewBox="0 0 32 32" style="enable-background:new 0 0 512 512" xml:space="preserve" class=""><g><g xmlns="http://www.w3.org/2000/svg" id="Empty"><path d="m31.71 15.29c-4.09-4.08-4-4.07-4.28-4.19l-7-3.19a1 1 0 1 0 -.82 1.82l5 2.27-8.61 3.9-8.58-3.9 5-2.27a1 1 0 0 0 -.82-1.82c-4.87 2.21-7.13 3.25-7 3.19-.24.12-.13.05-4.28 4.19a1 1 0 0 0 .3 1.62l11 5a1 1 0 0 0 1.12-.2l2.26-2.3v10l-9-4.05v-3.36a1 1 0 0 0 -2 0c0 4.42 0 4.2.18 4.54a.6.6 0 0 0 .3.29c.1.07 0 .05.13.09 11.98 5.44 11.08 5.08 11.39 5.08s-.5.32 11.41-5.09a1 1 0 0 0 .59-.91v-7.54l3.41-1.55a1 1 0 0 0 .3-1.62zm-19.93 4.51-9-4.11 2.44-2.49 9.05 4.11zm14.22 5.56-9 4.09v-10c2.46 2.42 2.45 2.55 3 2.55.33 0 .07.07 6-2.63zm-5.78-5.56-2.49-2.49 9.05-4.11 2.49 2.49z" fill="#87a0e4" data-original="#38004d" class=""></path><g fill="#9f85ec"><path d="m15 8.91a3.61 3.61 0 0 1 2-3.16 2 2 0 0 0 1-2.12 2 2 0 1 0 -3.86 1 1 1 0 0 1 -.6 1.27 1 1 0 0 1 -1.28-.61 4 4 0 1 1 5.7 2.17 1.67 1.67 0 0 0 -.96 1.45 1 1 0 1 1 -2 0z" fill="#87a0e4" data-original="#9f85ec" class=""></path><path d="m16 13a1 1 0 1 1 1-1 1 1 0 0 1 -1 1z" fill="#87a0e4" data-original="#9f85ec" class=""></path></g></g></g></svg>
